<?xml version="1.0" encoding="UTF-8" standalone="no"?>
<!-- Created with Inkscape (http://www.inkscape.org/) -->

<svg
   width="46.665005mm"
   height="59.191238mm"
   viewBox="0 0 46.665005 59.191238"
   version="1.1"
   id="svg1"
   xml:space="preserve"
   xmlns="http://www.w3.org/2000/svg"
   xmlns:svg="http://www.w3.org/2000/svg"><defs
     id="defs1"><linearGradient
       id="swatch6"><stop
         style="stop-color:#000000;stop-opacity:1;"
         offset="0"
         id="stop6" /></linearGradient></defs><g
     id="layer1"
     transform="matrix(0.97725503,0,0,0.97271965,-79.430156,-114.87874)"><path
       style="fill:#000000;stroke:#000000;stroke-width:0;stroke-miterlimit:0"
       d="m 81.624714,118.14832 c -0.09223,20.38312 -0.184462,40.76624 -0.276693,61.14936"
       id="path1" /><path
       style="fill:#5caf9f;fill-opacity:1;stroke:none;stroke-width:0.2;stroke-miterlimit:0;stroke-dasharray:none;stroke-opacity:1"
       d="m 104.21886,149.08615 -0.009,-0.0259 c 6.6469,-2.95398 6.94162,-2.6394 9.38918,-4.35929 12.22859,-8.59298 5.10295,-26.54869 -10.94558,-26.60039 H 81.278848 v 60.85127 l 31.017102,-0.0882 c 16.3271,-2.22821 22.92068,-21.8885 9.64426,-33.73865 l -2.12772,3.49729 c 11.71694,10.90903 1.5201,25.40732 -7.55706,26.33967 h 0.0489 -27.290114 v -53.07826 h 17.224194 c 18.26272,0.54977 19.48811,24.02856 -4.530858,22.79266 v 2.83611 l 18.192628,18.19263 2.14438,-3.14739 z"
       id="path6" /></g></svg>
